<svg width="177" height="45" viewBox="0 0 177 45" fill="none" xmlns="http://www.w3.org/2000/svg">
    <path d="M23.0915 0.155396C23.0915 0.155396 26.802 9.84745 10.8998 16.3575C2.25892 19.894 -4.37778 28.9582 3.54643 42.9601C4.20269 36.7015 7.01666 22.902 19.1166 19.7531C19.1166 19.7531 7.85471 24.2495 6.85987 44.6025C12.6467 45.47 26.2185 46.0529 30.2479 33.4776C35.5688 16.8628 23.0915 0.155396 23.0915 0.155396Z" fill="#8DCE97" />
    <path d="M6.86512 44.5178C19.1501 39.2829 28.0889 27.0195 29.3226 12.3797C26.8111 5.14642 23.0915 0.155396 23.0915 0.155396C23.0915 0.155396 26.802 9.84745 10.8998 16.3575C2.25892 19.894 -4.37778 28.9582 3.54643 42.9601C4.20269 36.7015 7.01666 22.902 19.1166 19.7531C19.1159 19.7531 7.88753 24.2383 6.86512 44.5178Z" fill="#8DCE97" />
    <path d="M2.32059 16.6805C2.95487 16.6805 3.46906 16.1315 3.46906 15.4542C3.46906 14.7769 2.95487 14.228 2.32059 14.228C1.68631 14.228 1.17212 14.7769 1.17212 15.4542C1.17212 16.1315 1.68631 16.6805 2.32059 16.6805Z" fill="#8DCE97" />
    <path d="M5.92991 15.1054C6.38295 15.1054 6.75021 14.713 6.75021 14.229C6.75021 13.7449 6.38295 13.3525 5.92991 13.3525C5.47688 13.3525 5.10962 13.7449 5.10962 14.229C5.10962 14.713 5.47688 15.1054 5.92991 15.1054Z" fill="#8DCE97" />
    <path d="M5.19161 8.09692C6.32422 8.09692 7.24237 7.11659 7.24237 5.90729C7.24237 4.69799 6.32422 3.71765 5.19161 3.71765C4.05902 3.71765 3.14087 4.69799 3.14087 5.90729C3.14087 7.11659 4.05902 8.09692 5.19161 8.09692Z" fill="#8DCE97" />
    <path d="M11.508 11.6016C11.8705 11.6016 12.1643 11.2877 12.1643 10.9005C12.1643 10.5133 11.8705 10.1993 11.508 10.1993C11.1456 10.1993 10.8518 10.5133 10.8518 10.9005C10.8518 11.2877 11.1456 11.6016 11.508 11.6016Z" fill="#8DCE97" />
    <path d="M17.0046 8.97295C18.0466 8.97295 18.8913 8.07103 18.8913 6.95847C18.8913 5.84589 18.0466 4.94397 17.0046 4.94397C15.9626 4.94397 15.1179 5.84589 15.1179 6.95847C15.1179 8.07103 15.9626 8.97295 17.0046 8.97295Z" fill="#8DCE97" />
    <g opacity="0.8">
        <path opacity="0.8" d="M50.7156 40.6177C48.8751 40.6177 47.2116 40.191 45.7251 39.3376C44.2562 38.4843 43.0971 37.3061 42.2476 35.8034C41.4159 34.2821 41 32.5846 41 30.7109C41 28.8371 41.4159 27.1488 42.2476 25.6461C43.0971 24.1248 44.2651 22.9375 45.7516 22.0841C47.2382 21.2307 48.9017 20.804 50.7422 20.804C52.1225 20.804 53.3967 21.0452 54.5647 21.5276C55.7327 22.0098 56.7237 22.7149 57.5378 23.6425L56.2902 24.9504C54.839 23.4106 53.0074 22.6407 50.7953 22.6407C49.3264 22.6407 47.9903 22.9931 46.7869 23.6981C45.5835 24.4031 44.6367 25.3679 43.9465 26.5922C43.2741 27.8167 42.9378 29.1896 42.9378 30.7109C42.9378 32.2322 43.2741 33.605 43.9465 34.8294C44.6367 36.0539 45.5835 37.0186 46.7869 37.7236C47.9903 38.4285 49.3264 38.7811 50.7953 38.7811C53.0251 38.7811 54.8567 38.0019 56.2902 36.4435L57.5378 37.7514C56.7237 38.679 55.7239 39.3933 54.5382 39.8942C53.3702 40.3766 52.096 40.6177 50.7156 40.6177Z" fill="#213E26" />
        <path opacity="0.8" d="M66.0042 25.7018C67.827 25.7018 69.2251 26.1842 70.1984 27.1489C71.1717 28.0951 71.6584 29.505 71.6584 31.3788V40.4509H69.8533V38.1689C69.4286 38.9296 68.8003 39.5232 67.9686 39.9499C67.1545 40.3766 66.1812 40.59 65.0486 40.59C63.4912 40.59 62.2525 40.2004 61.3322 39.4211C60.412 38.642 59.9519 37.6123 59.9519 36.3322C59.9519 35.0893 60.3766 34.0874 61.226 33.3268C62.0932 32.5661 63.4647 32.1858 65.3406 32.1858H69.7737V31.2953C69.7737 30.0338 69.4374 29.0783 68.7649 28.429C68.0925 27.7611 67.1103 27.4271 65.8184 27.4271C64.9336 27.4271 64.0841 27.5848 63.27 27.9002C62.456 28.1971 61.7569 28.6145 61.1729 29.1526L60.3235 27.6776C61.0314 27.0468 61.8808 26.5645 62.8719 26.2305C63.8629 25.8781 64.907 25.7018 66.0042 25.7018ZM65.3406 39.0316C66.4024 39.0316 67.3138 38.7811 68.0748 38.2802C68.8357 37.7607 69.402 37.0186 69.7737 36.0539V33.6607H65.3937C63.0046 33.6607 61.81 34.5326 61.81 36.2766C61.81 37.13 62.1197 37.8072 62.7391 38.308C63.3585 38.7904 64.2257 39.0316 65.3406 39.0316Z" fill="#213E26" />
        <path opacity="0.8" d="M80.5203 40.59C79.3877 40.59 78.2993 40.423 77.2552 40.089C76.2288 39.7365 75.4236 39.3006 74.8396 38.7811L75.689 37.2227C76.273 37.7051 77.0075 38.104 77.8923 38.4194C78.7772 38.7162 79.6974 38.8646 80.653 38.8646C81.9272 38.8646 82.8651 38.6605 83.4668 38.2524C84.0862 37.8256 84.3959 37.232 84.3959 36.4713C84.3959 35.9334 84.2278 35.5159 83.8916 35.2191C83.5553 34.9037 83.1306 34.6718 82.6174 34.5234C82.1042 34.3564 81.4228 34.1988 80.5734 34.0504C79.4408 33.8277 78.5294 33.605 77.8392 33.3824C77.149 33.1413 76.5562 32.7424 76.0607 32.1858C75.5829 31.6293 75.3439 30.8593 75.3439 29.8761C75.3439 28.6516 75.8306 27.6497 76.8039 26.8706C77.7773 26.0914 79.1311 25.7018 80.8654 25.7018C81.7679 25.7018 82.6705 25.8317 83.573 26.0914C84.4756 26.3326 85.2188 26.6573 85.8028 27.0654L84.9799 28.6516C83.8296 27.8167 82.4581 27.3994 80.8654 27.3994C79.662 27.3994 78.7506 27.622 78.1312 28.0672C77.5295 28.5125 77.2287 29.0968 77.2287 29.8204C77.2287 30.3769 77.3968 30.8222 77.733 31.1562C78.087 31.4902 78.5205 31.7405 79.0338 31.9075C79.547 32.0559 80.2548 32.2136 81.1574 32.3806C82.2723 32.6033 83.166 32.8259 83.8385 33.0485C84.511 33.2711 85.0861 33.6515 85.5639 34.1895C86.0417 34.7275 86.2807 35.4696 86.2807 36.4157C86.2807 37.6958 85.7674 38.7162 84.741 39.4769C83.7323 40.2189 82.3254 40.59 80.5203 40.59Z" fill="#213E26" />
        <path opacity="0.8" d="M94.6493 25.7018C96.4721 25.7018 97.8701 26.1842 98.8435 27.1489C99.8168 28.0951 100.303 29.505 100.303 31.3788V40.4509H98.4984V38.1689C98.0737 38.9296 97.4454 39.5232 96.6137 39.9499C95.7996 40.3766 94.8263 40.59 93.6937 40.59C92.1363 40.59 90.8976 40.2004 89.9773 39.4211C89.0571 38.642 88.5969 37.6123 88.5969 36.3322C88.5969 35.0893 89.0217 34.0874 89.8711 33.3268C90.7383 32.5661 92.1098 32.1858 93.9857 32.1858H98.4187V31.2953C98.4187 30.0338 98.0825 29.0783 97.41 28.429C96.7375 27.7611 95.7554 27.4271 94.4635 27.4271C93.5786 27.4271 92.7292 27.5848 91.9151 27.9002C91.1011 28.1971 90.402 28.6145 89.818 29.1526L88.9686 27.6776C89.6765 27.0468 90.5259 26.5645 91.5169 26.2305C92.508 25.8781 93.5521 25.7018 94.6493 25.7018ZM93.9857 39.0316C95.0475 39.0316 95.9589 38.7811 96.7198 38.2802C97.4808 37.7607 98.0471 37.0186 98.4187 36.0539V33.6607H94.0388C91.6497 33.6607 90.4551 34.5326 90.4551 36.2766C90.4551 37.13 90.7648 37.8072 91.3842 38.308C92.0036 38.7904 92.8708 39.0316 93.9857 39.0316Z" fill="#213E26" />
        <path opacity="0.8" d="M113.652 40.4509L119.226 26.0915C119.571 25.201 119.81 24.4218 119.81 23.7818C119.81 22.4459 118.987 20.7206 116.784 20.7206C115.191 20.7206 113.837 21.6946 113.837 23.4478C113.837 24.9505 115.005 26.175 116.492 26.175C118.058 26.175 118.775 25.034 118.775 23.8374C118.775 22.7243 118.191 22.1398 117.421 21.8616C117.262 21.8059 117.209 21.7224 117.209 21.5833C117.209 21.4442 117.315 21.3328 117.448 21.3328C117.527 21.3328 117.633 21.3607 117.74 21.3884C118.509 21.6111 119.306 22.4459 119.306 23.8095C119.306 24.7001 118.775 25.9523 118.324 27.0655L115.085 35.1913H114.687L109.856 21.4163H112.006V20.9711H102.582V21.4163H104.122L110.148 38.4195C110.599 39.6996 111.263 40.4509 112.563 40.4509H113.652Z" fill="#213E26" />
        <path opacity="0.8" d="M128.799 40.0611C126.516 40.0611 125.985 38.0018 125.985 34.9128H127.737C130.817 34.9128 133.577 34.0223 133.577 31.1004C133.577 27.928 130.551 26.8705 127.498 26.8705C123.278 26.8705 120.597 29.4584 120.597 33.7997C120.597 38.3914 123.357 40.729 128.003 40.729C131.162 40.729 133.126 38.8645 133.63 35.8868L133.153 35.8033L133.1 36.0538C132.622 38.5028 130.896 40.0611 128.799 40.0611ZM125.959 32.4083C125.959 28.095 126.516 27.3714 127.498 27.3714C128.215 27.3714 128.746 28.1227 128.746 31.0725C128.746 33.104 128.295 34.412 126.622 34.412H125.959V32.4083Z" fill="#213E26" />
        <path opacity="0.8" d="M141.199 29.1246V26.8705C139.421 27.2601 137.722 27.3992 135.89 27.3992H134.298V27.8445H136.182V39.755H134.536V40.2002H143.084V39.755H141.093V34.2171C141.093 29.8203 142.128 27.3714 144.358 27.3714C145.34 27.3714 145.924 27.928 146.163 28.2618C146.27 28.4288 146.323 28.5402 146.323 28.6793C146.323 28.8463 146.216 28.9297 146.084 28.9297C145.898 28.9297 145.818 28.7071 145.659 28.5123C145.5 28.3176 145.102 27.9557 144.491 27.9557C143.456 27.9557 142.739 28.8184 142.739 29.9316C142.739 31.1839 143.668 32.0186 144.81 32.0186C146.243 32.0186 147.066 30.8499 147.066 29.5142C147.066 28.0671 145.924 26.8705 144.332 26.8705C142.898 26.8705 141.863 27.8445 141.332 29.1246H141.199Z" fill="#213E26" />
        <path opacity="0.8" d="M161.415 20.4421C159.637 20.8318 157.938 20.9709 156.106 20.9709H154.514V21.4161H156.398V28.8463H156.266C155.655 27.5384 154.567 26.8705 152.921 26.8705C149.098 26.8705 147.744 29.7925 147.744 33.7997C147.744 37.5287 149.258 40.729 152.549 40.729C154.407 40.729 155.575 40.0889 156.266 38.28H156.398V40.2002H163.061V39.755H161.415V20.4421ZM156.504 33.7997C156.504 36.3321 155.867 39.4768 154.487 39.4768C153.292 39.4768 153.107 36.9443 153.107 33.7997C153.107 29.8481 153.452 27.9001 154.487 27.9001C155.469 27.9001 156.504 29.5698 156.504 33.0484V33.7997Z" fill="#213E26" />
        <path opacity="0.8" d="M172.169 40.0611C169.886 40.0611 169.355 38.0018 169.355 34.9128H171.107C174.186 34.9128 176.947 34.0223 176.947 31.1004C176.947 27.928 173.921 26.8705 170.868 26.8705C166.647 26.8705 163.966 29.4584 163.966 33.7997C163.966 38.3914 166.727 40.729 171.372 40.729C174.531 40.729 176.496 38.8645 177 35.8868L176.522 35.8033L176.469 36.0538C175.991 38.5028 174.266 40.0611 172.169 40.0611ZM169.328 32.4083C169.328 28.095 169.886 27.3714 170.868 27.3714C171.585 27.3714 172.116 28.1227 172.116 31.0725C172.116 33.104 171.664 34.412 169.992 34.412H169.328V32.4083Z" fill="#213E26" />
    </g>
</svg>
    